<svg width="24" height="24" viewBox="0 0 24 24" fill="none" xmlns="http://www.w3.org/2000/svg">
<circle cx="12" cy="12" r="10" fill="currentColor"/>
<path d="M14.899 17C14.421 17 14.0016 16.6753 13.8552 16.192L13.3228 14.4519H10.6596L10.1649 16.1761C10.0156 16.6688 9.593 16.9986 9.11257 16.9986C8.99723 16.9986 8.88266 16.9791 8.77204 16.9406C8.19779 16.7556 7.87178 16.0926 8.04771 15.4633L9.17167 11.6441L10.2956 7.82484C10.4416 7.33893 10.8713 7 11.3407 7H12.536C13.008 7 13.4377 7.33316 13.5808 7.81021L15.9449 15.4459C16.1339 16.0701 15.8209 16.7403 15.2475 16.9405C15.1341 16.98 15.0169 17 14.899 17Z" fill="white"/>
</svg>
