<svg width="26" height="26" viewBox="0 0 26 26" fill="none" xmlns="http://www.w3.org/2000/svg">
<circle cx="13" cy="13" r="5" stroke="currentColor" stroke-width="2"/>
<mask id="path-2-outside-1_6138_33203" maskUnits="userSpaceOnUse" x="0" y="0" width="26" height="26" fill="black">
<rect fill="white" width="26" height="26"/>
<path fill-rule="evenodd" clip-rule="evenodd" d="M11.9 2H14.1L14.902 4.40609C15.9227 4.63097 16.8769 5.03305 17.7307 5.57842L19.9997 4.44393L21.5553 5.99957L20.421 8.26832C20.9666 9.12237 21.3689 10.0769 21.5939 11.098L24 11.9V14.1L21.5939 14.902C21.369 15.9228 20.9669 16.8771 20.4214 17.7309L21.5561 20.0002L20.0004 21.5559L17.7312 20.4213C16.8773 20.9668 15.9229 21.369 14.902 21.5939L14.1 24H11.9L11.098 21.5939C10.0773 21.369 9.1231 20.967 8.26929 20.4216L6.00031 21.5561L4.44467 20.0004L5.57905 17.7317C5.03336 16.8776 4.63106 15.9231 4.40609 14.902L2 14.1V11.9L4.40609 11.098C4.63099 10.0772 5.03313 9.12293 5.57857 8.26906L4.44393 5.99977L5.99957 4.44414L8.26879 5.57875C9.12273 5.03321 10.0771 4.63102 11.098 4.40609L11.9 2Z"/>
</mask>
<path d="M14.1 2L15.9974 1.36754C15.7251 0.55086 14.9609 0 14.1 0V2ZM11.9 2V0C11.0391 0 10.2749 0.55086 10.0026 1.36754L11.9 2ZM14.902 4.40609L13.0047 5.03855C13.2272 5.70624 13.7844 6.20781 14.4717 6.35925L14.902 4.40609ZM17.7307 5.57842L16.6541 7.26392C17.2472 7.64275 17.9957 7.682 18.6251 7.36728L17.7307 5.57842ZM19.9997 4.44393L21.4139 3.02972C20.8052 2.421 19.8752 2.27009 19.1053 2.65508L19.9997 4.44393ZM21.5553 5.99957L23.3442 6.89399C23.7292 6.12402 23.5783 5.19407 22.9695 4.58535L21.5553 5.99957ZM20.421 8.26832L18.6321 7.37389C18.3173 8.00341 18.3566 8.75205 18.7356 9.34516L20.421 8.26832ZM21.5939 11.098L19.6408 11.5283C19.7922 12.2156 20.2938 12.7728 20.9615 12.9953L21.5939 11.098ZM24 11.9H26C26 11.0391 25.4491 10.2749 24.6325 10.0026L24 11.9ZM24 14.1L24.6325 15.9974C25.4491 15.7251 26 14.9609 26 14.1H24ZM21.5939 14.902L20.9615 13.0047C20.2938 13.2272 19.7922 13.7844 19.6408 14.4717L21.5939 14.902ZM20.4214 17.7309L18.736 16.6543C18.3571 17.2474 18.3178 17.9959 18.6326 18.6254L20.4214 17.7309ZM21.5561 20.0002L22.9703 21.4144C23.579 20.8057 23.7299 19.8758 23.3449 19.1058L21.5561 20.0002ZM20.0004 21.5559L19.106 23.3447C19.876 23.7297 20.8059 23.5788 21.4146 22.9701L20.0004 21.5559ZM17.7312 20.4213L18.6256 18.6324C17.9962 18.3177 17.2476 18.3569 16.6545 18.7358L17.7312 20.4213ZM14.902 21.5939L14.4717 19.6408C13.7844 19.7922 13.2272 20.2938 13.0047 20.9615L14.902 21.5939ZM14.1 24V26C14.9609 26 15.7251 25.4491 15.9974 24.6325L14.1 24ZM11.9 24L10.0026 24.6325C10.2749 25.4491 11.0391 26 11.9 26V24ZM11.098 21.5939L12.9953 20.9615C12.7728 20.2938 12.2156 19.7922 11.5283 19.6408L11.098 21.5939ZM8.26929 20.4216L9.34591 18.7361C8.75284 18.3573 8.00431 18.318 7.37487 18.6327L8.26929 20.4216ZM6.00031 21.5561L4.58609 22.9703C5.19481 23.579 6.12476 23.7299 6.89473 23.3449L6.00031 21.5561ZM4.44467 20.0004L2.65582 19.106C2.27083 19.876 2.42174 20.8059 3.03046 21.4146L4.44467 20.0004ZM5.57905 17.7317L7.3679 18.6261C7.68267 17.9966 7.64336 17.2479 7.2644 16.6548L5.57905 17.7317ZM4.40609 14.902L6.35925 14.4717C6.20781 13.7844 5.70624 13.2272 5.03855 13.0047L4.40609 14.902ZM2 14.1H0C0 14.9609 0.55086 15.7251 1.36754 15.9974L2 14.1ZM2 11.9L1.36755 10.0026C0.550861 10.2749 0 11.0391 0 11.9H2ZM4.40609 11.098L5.03855 12.9953C5.70624 12.7728 6.20781 12.2156 6.35925 11.5283L4.40609 11.098ZM5.57857 8.26906L7.26404 9.34573C7.6429 8.75265 7.68216 8.00409 7.36743 7.37463L5.57857 8.26906ZM4.44393 5.99977L3.02972 4.58556C2.421 5.19428 2.27009 6.12422 2.65508 6.8942L4.44393 5.99977ZM5.99957 4.44414L6.89399 2.65528C6.12402 2.27029 5.19407 2.4212 4.58535 3.02992L5.99957 4.44414ZM8.26879 5.57875L7.37436 7.3676C8.00385 7.68234 8.75243 7.64306 9.34552 7.26417L8.26879 5.57875ZM11.098 4.40609L11.5283 6.35925C12.2156 6.20781 12.7728 5.70624 12.9953 5.03855L11.098 4.40609ZM14.1 0H11.9V4H14.1V0ZM16.7994 3.77364L15.9974 1.36754L12.2026 2.63246L13.0047 5.03855L16.7994 3.77364ZM18.8073 3.89293C17.7595 3.22362 16.5871 2.72939 15.3324 2.45294L14.4717 6.35925C15.2583 6.53256 15.9943 6.84248 16.6541 7.26392L18.8073 3.89293ZM18.6251 7.36728L20.8941 6.23279L19.1053 2.65508L16.8363 3.78957L18.6251 7.36728ZM18.5855 5.85814L20.1411 7.41378L22.9695 4.58535L21.4139 3.02972L18.5855 5.85814ZM19.7665 5.10514L18.6321 7.37389L22.2098 9.16274L23.3442 6.89399L19.7665 5.10514ZM23.5471 10.6676C23.2705 9.41241 22.776 8.23962 22.1063 7.19147L18.7356 9.34516C19.1573 10.0051 19.4674 10.7414 19.6408 11.5283L23.5471 10.6676ZM24.6325 10.0026L22.2264 9.2006L20.9615 12.9953L23.3675 13.7974L24.6325 10.0026ZM26 14.1V11.9H22V14.1H26ZM22.2264 16.7994L24.6325 15.9974L23.3675 12.2026L20.9615 13.0047L22.2264 16.7994ZM22.1069 18.8076C22.7763 17.7597 23.2706 16.5872 23.5471 15.3324L19.6408 14.4717C19.4674 15.2584 19.1575 15.9944 18.736 16.6543L22.1069 18.8076ZM23.3449 19.1058L22.2103 16.8365L18.6326 18.6254L19.7672 20.8947L23.3449 19.1058ZM21.4146 22.9701L22.9703 21.4144L20.1419 18.586L18.5862 20.1417L21.4146 22.9701ZM16.8368 22.2101L19.106 23.3447L20.8949 19.767L18.6256 18.6324L16.8368 22.2101ZM15.3324 23.5471C16.5874 23.2706 17.7599 22.7762 18.8079 22.1067L16.6545 18.7358C15.9946 19.1574 15.2585 19.4674 14.4717 19.6408L15.3324 23.5471ZM15.9974 24.6325L16.7994 22.2264L13.0047 20.9615L12.2026 23.3675L15.9974 24.6325ZM11.9 26H14.1V22H11.9V26ZM9.2006 22.2264L10.0026 24.6325L13.7974 23.3675L12.9953 20.9615L9.2006 22.2264ZM7.19268 22.1071C8.24052 22.7764 9.41289 23.2706 10.6676 23.5471L11.5283 19.6408C10.7417 19.4674 10.0057 19.1575 9.34591 18.7361L7.19268 22.1071ZM6.89473 23.3449L9.16372 22.2104L7.37487 18.6327L5.10588 19.7672L6.89473 23.3449ZM3.03046 21.4146L4.58609 22.9703L7.41452 20.1419L5.85889 18.5862L3.03046 21.4146ZM3.79019 16.8373L2.65582 19.106L6.23353 20.8949L7.3679 18.6261L3.79019 16.8373ZM2.45294 15.3324C2.72949 16.5876 3.22399 17.7604 3.89369 18.8085L7.2644 16.6548C6.84272 15.9949 6.53262 15.2586 6.35925 14.4717L2.45294 15.3324ZM1.36754 15.9974L3.77364 16.7994L5.03855 13.0047L2.63246 12.2026L1.36754 15.9974ZM0 11.9V14.1H4V11.9H0ZM3.77364 9.2006L1.36755 10.0026L2.63245 13.7974L5.03855 12.9953L3.77364 9.2006ZM3.89311 7.19239C3.22371 8.2403 2.72942 9.41278 2.45294 10.6676L6.35925 11.5283C6.53257 10.7416 6.84254 10.0056 7.26404 9.34573L3.89311 7.19239ZM2.65508 6.8942L3.78972 9.16349L7.36743 7.37463L6.23279 5.10534L2.65508 6.8942ZM4.58535 3.02992L3.02972 4.58556L5.85814 7.41398L7.41378 5.85835L4.58535 3.02992ZM9.16322 3.78989L6.89399 2.65528L5.10514 6.23299L7.37436 7.3676L9.16322 3.78989ZM10.6676 2.45294C9.41265 2.72944 8.24005 3.22381 7.19206 3.89333L9.34552 7.26417C10.0054 6.84261 10.7415 6.53259 11.5283 6.35925L10.6676 2.45294ZM10.0026 1.36754L9.2006 3.77364L12.9953 5.03855L13.7974 2.63246L10.0026 1.36754Z" fill="currentColor" mask="url(#path-2-outside-1_6138_33203)"/>
</svg>
