<svg width="24" height="24" viewBox="0 0 24 24" fill="none" xmlns="http://www.w3.org/2000/svg">
<circle cx="12" cy="12" r="10" fill="#425CC7"/>
<path fill-rule="evenodd" clip-rule="evenodd" d="M14 6.5C14 6.22386 13.7761 6 13.5 6H10.5C10.2239 6 10 6.22386 10 6.5V9.5C10 9.77614 9.77614 10 9.5 10L6.5 10C6.22386 10 6 10.2239 6 10.5V13.5C6 13.7761 6.22386 14 6.5 14H9.5C9.77614 14 10 14.2239 10 14.5V17.5C10 17.7761 10.2239 18 10.5 18H13.5C13.7761 18 14 17.7761 14 17.5V14.5C14 14.2239 14.2239 14 14.5 14H17.5C17.7761 14 18 13.7761 18 13.5V10.5C18 10.2239 17.7761 10 17.5 10L14.5 10C14.2239 10 14 9.77614 14 9.5V6.5Z" fill="white"/>
</svg>
