<svg width="24" height="24" viewBox="0 0 24 24" fill="none" xmlns="http://www.w3.org/2000/svg">
<circle cx="12" cy="12" r="9.5" stroke="currentColor"/>
<path d="M10 6V5.5C9.72386 5.5 9.5 5.72386 9.5 6H10ZM14 6H14.5C14.5 5.72386 14.2761 5.5 14 5.5V6ZM10 10V10.5C10.1326 10.5 10.2598 10.4473 10.3536 10.3536C10.4473 10.2598 10.5 10.1326 10.5 10H10ZM6 10L6 9.5C5.86739 9.5 5.74021 9.55268 5.64645 9.64645C5.55268 9.74021 5.5 9.86739 5.5 10H6ZM6 14H5.5C5.5 14.2761 5.72386 14.5 6 14.5V14ZM10 14H10.5C10.5 13.7239 10.2761 13.5 10 13.5V14ZM10 18H9.5C9.5 18.2761 9.72386 18.5 10 18.5V18ZM14 18V18.5C14.2761 18.5 14.5 18.2761 14.5 18H14ZM14 14V13.5C13.7239 13.5 13.5 13.7239 13.5 14H14ZM18 14V14.5C18.2761 14.5 18.5 14.2761 18.5 14H18ZM18 10H18.5C18.5 9.72386 18.2761 9.5 18 9.5V10ZM14 10H13.5C13.5 10.2761 13.7239 10.5 14 10.5V10ZM10 6.5H14V5.5H10V6.5ZM10.5 10V6H9.5V10H10.5ZM6 10.5H10V9.5L6 9.5L6 10.5ZM6.5 14V10H5.5V14H6.5ZM10 13.5H6V14.5H10V13.5ZM10.5 18V14H9.5V18H10.5ZM14 17.5H10V18.5H14V17.5ZM13.5 14V18H14.5V14H13.5ZM18 13.5H14V14.5H18V13.5ZM17.5 10V14H18.5V10H17.5ZM14 10.5L18 10.5V9.5L14 9.5V10.5ZM13.5 6V10H14.5V6H13.5Z" fill="currentColor" />
</svg>
