<svg width="24" height="24" viewBox="0 0 24 24" fill="none" xmlns="http://www.w3.org/2000/svg">
<path d="M13 14.9999V6.99994M13 14.9999L18.504 18.1449C18.6561 18.2318 18.8283 18.2772 19.0034 18.2766C19.1785 18.276 19.3504 18.2295 19.5019 18.1416C19.6533 18.0537 19.7791 17.9276 19.8665 17.7758C19.9539 17.6241 19.9999 17.4521 20 17.2769V4.72294C19.9999 4.54783 19.9539 4.37579 19.8665 4.22406C19.7791 4.07232 19.6533 3.9462 19.5019 3.85832C19.3504 3.77043 19.1785 3.72386 19.0034 3.72327C18.8283 3.72268 18.6561 3.76809 18.504 3.85494L13 6.99994M13 14.9999H10M13 6.99994H7C5.93913 6.99994 4.92172 7.42137 4.17157 8.17152C3.42143 8.92166 3 9.93908 3 10.9999C3 12.0608 3.42143 13.0782 4.17157 13.8284C4.92172 14.5785 5.93913 14.9999 7 14.9999M10 14.9999V19.4999C10 19.8978 9.84196 20.2793 9.56066 20.5606C9.27936 20.8419 8.89782 20.9999 8.5 20.9999C8.10218 20.9999 7.72064 20.8419 7.43934 20.5606C7.15804 20.2793 7 19.8978 7 19.4999V14.9999M10 14.9999H7" stroke="currentColor" stroke-width="2" stroke-linecap="round" stroke-linejoin="round"/>
</svg>
