<?xml version="1.0" standalone="no"?>
<!DOCTYPE svg PUBLIC "-//W3C//DTD SVG 20010904//EN"
 "http://www.w3.org/TR/2001/REC-SVG-20010904/DTD/svg10.dtd">
<svg version="1.0" xmlns="http://www.w3.org/2000/svg"
 width="1024.000000pt" height="1024.000000pt" viewBox="0 0 1024.000000 1024.000000"
 preserveAspectRatio="xMidYMid meet">
<metadata>
Created by potrace 1.14, written by Peter Selinger 2001-2017
</metadata>
<g transform="translate(0.000000,1024.000000) scale(0.100000,-0.100000)"
fill="#000000" stroke="none">
<path d="M4771 9885 c-1 -6 -18 -11 -38 -11 -21 -1 -67 -4 -103 -9 -36 -4 -78
-7 -93 -6 -16 1 -26 -3 -22 -8 3 -6 -2 -9 -12 -7 -19 3 -208 -18 -208 -24 0
-2 -63 -11 -82 -13 -7 0 -13 -5 -13 -11 0 -6 -5 -4 -10 4 -5 8 -10 10 -10 5 0
-6 -17 -12 -37 -13 -20 -2 -42 -7 -48 -12 -6 -5 -21 -8 -33 -5 -12 2 -22 -1
-22 -6 0 -6 -5 -7 -10 -4 -6 4 -16 2 -23 -3 -7 -5 -20 -8 -29 -7 -10 2 -20 -1
-24 -6 -3 -5 -19 -9 -35 -9 -17 0 -28 -4 -25 -8 3 -5 -5 -8 -17 -7 -12 1 -28
-3 -36 -9 -12 -9 -13 -8 -7 3 6 8 0 7 -18 -4 -14 -10 -26 -14 -26 -9 0 4 -5 3
-12 -4 -7 -7 -24 -12 -38 -12 -14 0 -31 -5 -38 -12 -7 -7 -12 -9 -12 -6 0 3
-29 -4 -64 -17 -35 -13 -67 -21 -70 -17 -3 3 -6 0 -6 -6 0 -7 -3 -11 -7 -11
-18 4 -73 -14 -73 -23 0 -6 -7 -8 -15 -5 -8 4 -17 2 -20 -4 -4 -5 -10 -7 -15
-4 -5 3 -16 -2 -24 -11 -9 -8 -16 -12 -16 -8 0 3 -7 1 -15 -6 -8 -7 -15 -9
-15 -5 0 4 -7 2 -15 -5 -8 -6 -19 -9 -25 -5 -5 3 -10 -2 -11 -12 0 -10 -3 -13
-6 -6 -3 10 -8 9 -20 -2 -8 -8 -19 -13 -24 -10 -5 4 -9 1 -9 -4 0 -6 -9 -11
-20 -11 -11 0 -20 -4 -20 -8 0 -4 -10 -8 -22 -9 -11 -1 -24 -7 -28 -14 -4 -6
-13 -8 -19 -5 -6 4 -14 0 -17 -9 -4 -9 -13 -14 -20 -11 -8 3 -14 2 -14 -2 0
-5 -16 -14 -35 -21 -19 -7 -35 -17 -35 -23 0 -6 -3 -8 -7 -5 -3 4 -12 2 -20
-4 -7 -6 -13 -8 -13 -4 0 5 -9 0 -20 -10 -11 -10 -20 -14 -20 -10 0 4 -9 0
-20 -10 -11 -10 -20 -15 -20 -11 0 4 -13 -2 -30 -14 -16 -12 -30 -18 -30 -13
0 4 -5 0 -11 -10 -6 -9 -14 -15 -20 -12 -5 4 -9 1 -9 -4 0 -6 -7 -11 -15 -11
-8 0 -15 -5 -15 -11 0 -5 -5 -7 -11 -4 -5 4 -18 -3 -29 -15 -10 -12 -21 -21
-24 -21 -21 3 -26 -1 -20 -11 4 -7 4 -10 -1 -6 -4 4 -17 2 -29 -4 -11 -7 -24
-11 -28 -10 -5 1 -8 -3 -8 -8 0 -6 -16 -18 -35 -27 -19 -9 -35 -20 -35 -25 0
-4 -6 -8 -13 -8 -8 0 -27 -11 -43 -25 -15 -13 -30 -23 -32 -21 -2 2 -15 -7
-29 -20 -14 -13 -32 -24 -39 -24 -8 0 -14 -5 -14 -10 0 -6 -12 -16 -27 -22
-16 -7 -38 -23 -50 -35 -12 -13 -26 -23 -30 -23 -5 0 -22 -12 -38 -27 -16 -16
-33 -28 -37 -28 -3 0 -15 -8 -25 -17 -61 -58 -104 -89 -113 -83 -6 4 -9 1 -8
-6 2 -7 -11 -22 -29 -34 -18 -12 -29 -25 -26 -29 4 -3 2 -6 -4 -6 -5 0 -26
-16 -46 -35 -20 -19 -39 -35 -42 -35 -10 0 -300 -294 -297 -302 1 -4 -5 -8
-13 -8 -8 0 -15 -7 -15 -16 0 -9 -9 -18 -20 -21 -11 -3 -20 -11 -20 -17 0 -7
-16 -27 -35 -46 -19 -18 -32 -36 -30 -40 3 -4 -5 -10 -17 -13 -12 -4 -19 -9
-16 -13 4 -3 -5 -17 -19 -30 -14 -13 -23 -24 -19 -24 4 0 -5 -11 -20 -25 -15
-14 -23 -25 -18 -25 5 0 -2 -7 -14 -16 -12 -8 -22 -22 -22 -30 0 -8 -4 -13 -8
-10 -4 3 -16 -11 -26 -29 -11 -19 -23 -32 -29 -28 -6 3 -7 1 -3 -5 4 -7 -5
-24 -21 -39 -15 -14 -21 -23 -13 -19 9 5 8 2 -2 -7 -10 -8 -15 -17 -11 -20 3
-4 -1 -7 -11 -7 -9 0 -14 -4 -11 -10 3 -5 2 -10 -3 -10 -6 0 -13 -11 -16 -25
-4 -14 -11 -23 -16 -20 -6 3 -10 -3 -10 -14 0 -12 -4 -21 -10 -21 -5 0 -10 -7
-10 -17 0 -9 -3 -13 -7 -10 -4 4 -13 -5 -20 -20 -7 -16 -22 -41 -33 -58 -11
-16 -27 -45 -37 -62 -9 -18 -21 -33 -25 -33 -5 0 -6 -4 -3 -10 3 -5 2 -10 -3
-10 -4 0 -14 -16 -22 -35 -8 -19 -18 -35 -22 -35 -5 0 -7 -4 -4 -9 3 -5 -1
-12 -9 -15 -8 -3 -14 -9 -13 -13 3 -15 -22 -63 -32 -63 -6 0 -9 -4 -5 -9 3 -5
1 -12 -5 -16 -6 -4 -8 -11 -5 -16 4 -5 2 -9 -3 -9 -9 0 -37 -50 -34 -62 1 -5
-3 -8 -9 -8 -6 0 -8 -9 -4 -21 4 -13 3 -19 -2 -16 -5 3 -16 -9 -23 -28 -7 -19
-18 -31 -23 -28 -6 3 -7 1 -4 -4 4 -6 -2 -28 -12 -49 -11 -21 -17 -42 -14 -46
2 -5 -1 -8 -6 -8 -6 0 -11 -7 -11 -15 0 -8 -4 -15 -8 -15 -4 0 -8 -10 -9 -22
-1 -11 -8 -25 -15 -29 -7 -5 -9 -9 -4 -9 5 0 3 -6 -3 -13 -6 -8 -8 -17 -4 -20
3 -4 1 -7 -6 -7 -7 0 -10 -4 -6 -9 3 -5 1 -12 -5 -16 -5 -3 -10 -15 -10 -26 0
-10 -4 -19 -9 -19 -5 0 -8 -11 -7 -25 2 -13 -1 -22 -5 -19 -5 3 -9 -4 -9 -15
0 -12 -5 -21 -11 -21 -5 0 -8 -4 -5 -8 3 -5 -1 -20 -8 -33 -7 -14 -12 -33 -10
-42 1 -9 -2 -15 -7 -11 -5 3 -9 -3 -9 -13 -1 -19 -30 -110 -43 -129 -4 -7 -8
-28 -9 -48 -2 -20 -6 -36 -10 -36 -5 0 -7 -3 -7 -7 1 -5 0 -11 -1 -15 -1 -5
-4 -12 -5 -18 -1 -5 -4 -11 -5 -12 -3 -3 -8 -26 -16 -80 -4 -25 -10 -35 -18
-31 -6 4 -4 -2 4 -12 9 -11 10 -16 2 -11 -11 7 -13 -2 -12 -49 0 -3 -6 -21
-14 -39 -11 -26 -11 -36 -3 -40 9 -3 9 -5 0 -5 -7 -1 -13 -14 -13 -30 0 -16
-6 -32 -12 -34 -10 -4 -10 -6 0 -6 8 -1 10 -6 5 -13 -4 -7 -9 -22 -10 -32 -2
-11 -9 -26 -16 -35 -10 -12 -9 -14 7 -8 16 6 17 5 6 -8 -7 -8 -14 -27 -16 -42
-8 -64 -23 -174 -29 -213 -5 -33 -16 -136 -19 -180 -1 -19 -5 -41 -9 -47 -5
-7 -4 -13 1 -13 5 0 9 -7 9 -15 0 -8 -4 -12 -9 -9 -4 3 -8 0 -8 -5 0 -6 6 -11
13 -11 7 0 8 -3 2 -8 -14 -9 -18 -189 -5 -197 6 -4 7 -12 4 -18 -5 -9 -4 -9 6
0 7 6 19 9 28 6 11 -5 13 -3 7 8 -8 12 -6 12 8 0 9 -7 17 -10 17 -6 0 4 8 1
17 -6 10 -8 14 -9 10 -2 -5 8 7 11 45 9 29 -1 59 3 67 8 12 9 13 8 6 -3 -6
-11 -4 -13 7 -8 9 3 21 0 28 -6 10 -9 11 -9 5 1 -5 10 -2 13 11 11 11 -2 24 0
31 4 6 4 19 0 27 -9 9 -8 16 -11 16 -6 0 11 50 10 69 -2 9 -6 12 -5 7 2 -4 7
10 10 46 8 29 -1 59 3 67 8 12 9 13 8 6 -3 -6 -11 -4 -13 7 -8 9 3 21 0 28 -6
10 -9 11 -9 5 1 -5 10 -2 13 11 11 11 -2 24 0 31 4 6 4 19 0 27 -9 9 -8 16
-11 16 -6 0 11 50 10 69 -2 9 -6 12 -5 7 2 -4 7 10 10 46 8 29 -1 59 3 67 8
12 9 13 8 6 -3 -6 -11 -4 -13 7 -8 9 3 21 0 28 -6 10 -9 11 -9 5 1 -5 10 -2
13 11 11 11 -2 24 0 31 4 6 4 19 0 27 -9 9 -8 16 -11 16 -6 0 11 50 10 69 -2
9 -6 12 -5 7 2 -4 7 10 10 46 8 29 -1 59 3 67 8 11 8 13 8 7 -1 -14 -25 13
-13 31 13 10 14 26 34 36 45 9 10 15 19 13 19 -5 0 76 126 96 150 7 8 12 18
11 22 -2 5 2 8 7 8 6 0 10 7 10 15 0 8 5 15 10 15 6 0 10 6 10 14 0 8 3 16 8
18 4 2 36 48 72 102 36 55 71 105 78 112 7 7 13 16 13 18 0 11 34 66 42 66 4
0 7 7 7 16 0 9 5 12 13 8 6 -4 9 -4 5 1 -8 9 22 65 35 65 4 0 6 4 3 9 -3 5 1
12 10 15 8 3 12 10 9 16 -3 6 1 13 9 16 9 3 16 15 16 26 0 10 5 16 10 13 5 -3
10 1 10 9 0 9 5 16 12 16 6 0 8 3 5 7 -4 3 0 11 8 17 7 6 15 17 17 25 2 8 10
22 18 31 8 9 23 30 32 46 27 45 41 66 61 88 10 11 20 31 23 43 4 13 10 20 15
18 5 -3 11 6 15 20 3 14 10 25 15 25 5 0 9 7 9 15 0 7 7 18 16 23 9 5 15 12
15 15 -3 20 0 28 8 23 8 -5 25 29 22 47 -1 4 6 7 15 7 8 0 13 4 10 9 -3 5 1
14 9 21 8 7 15 18 15 25 0 6 9 20 20 30 11 10 20 24 20 32 0 7 3 13 8 13 8 0
46 62 44 72 -1 4 8 12 19 18 11 7 18 17 16 24 -3 7 4 18 14 24 10 7 19 18 19
25 0 7 11 24 25 39 14 15 25 30 26 33 0 11 35 65 42 65 4 0 7 7 7 15 0 9 7 18
15 21 8 4 13 10 10 14 -3 5 -1 11 4 15 10 6 41 -44 41 -66 0 -7 8 -21 17 -32
13 -15 14 -19 3 -13 -13 7 -13 6 0 -6 8 -7 17 -22 18 -33 2 -11 9 -23 15 -27
7 -4 8 -8 3 -8 -5 0 -3 -6 3 -13 6 -8 8 -17 4 -20 -3 -4 -1 -7 5 -7 7 0 12 -4
12 -10 0 -5 19 -52 42 -102 23 -51 41 -99 41 -105 0 -7 4 -13 8 -13 8 0 34
-70 31 -82 -1 -5 3 -8 8 -8 6 0 10 -7 10 -15 0 -8 5 -15 11 -15 5 0 7 -5 4
-11 -4 -5 1 -19 10 -29 10 -11 15 -26 12 -35 -4 -8 -2 -15 3 -15 5 0 12 -11
16 -25 3 -13 12 -29 19 -35 8 -6 11 -18 8 -26 -3 -8 1 -14 8 -14 7 0 9 -3 6
-7 -4 -3 2 -20 12 -37 11 -17 21 -40 23 -51 1 -11 9 -26 16 -33 6 -7 12 -22
12 -33 0 -10 5 -19 10 -19 6 0 10 -10 10 -22 0 -12 7 -29 16 -39 8 -9 16 -26
17 -38 1 -11 4 -21 8 -21 6 0 18 -28 23 -52 0 -3 4 -10 9 -14 4 -4 7 -16 7
-26 0 -11 4 -17 8 -14 4 2 14 -15 21 -40 7 -24 17 -44 22 -44 5 0 8 -3 7 -7
-3 -15 14 -63 23 -63 4 0 6 -9 4 -20 -2 -12 2 -20 10 -20 8 0 12 -6 9 -14 -3
-8 -1 -17 5 -21 6 -3 11 -15 11 -26 0 -10 5 -19 11 -19 6 0 9 -7 5 -15 -3 -8
2 -18 10 -23 9 -5 15 -12 14 -16 -4 -14 43 -116 54 -116 6 0 4 -5 -4 -10 -10
-6 -11 -10 -2 -10 6 0 12 -7 12 -15 0 -8 5 -15 12 -15 6 0 9 -2 6 -6 -8 -7 48
-138 61 -142 5 -2 7 -10 4 -19 -3 -8 -1 -18 6 -22 7 -4 13 -17 14 -29 0 -11 5
-18 9 -16 4 3 8 -2 8 -10 0 -9 14 -44 30 -78 17 -34 30 -67 30 -75 0 -7 5 -13
11 -13 5 0 8 -4 4 -9 -3 -5 -1 -12 5 -16 6 -4 8 -11 5 -16 -4 -5 -1 -9 5 -9 6
0 8 -4 5 -10 -3 -5 -1 -10 5 -10 7 0 10 -7 6 -15 -3 -8 -2 -15 3 -15 4 0 14
-18 21 -40 7 -22 18 -40 23 -40 6 0 7 -3 4 -6 -4 -4 0 -19 7 -33 31 -59 76
-163 76 -176 0 -8 5 -15 10 -15 6 0 10 -9 10 -19 0 -11 6 -26 13 -33 6 -7 14
-22 15 -33 2 -11 9 -23 15 -27 7 -4 8 -8 3 -8 -6 0 -5 -5 2 -12 7 -7 12 -20
12 -30 0 -10 5 -18 11 -18 5 0 8 -4 4 -9 -3 -5 -1 -12 5 -16 6 -4 8 -11 5 -16
-4 -5 -2 -9 2 -9 5 0 17 -23 27 -50 10 -27 22 -50 27 -50 4 0 6 -7 3 -15 -4
-8 -1 -15 5 -15 6 0 11 -7 11 -15 0 -26 19 -16 26 13 4 15 11 30 16 33 5 3 10
20 10 37 1 17 5 29 10 26 5 -3 8 0 7 7 -2 15 6 42 22 71 5 10 9 26 9 36 0 10
3 22 7 25 11 11 45 111 45 130 -1 10 4 15 10 11 7 -4 8 -2 4 4 -4 6 -2 20 4
32 5 11 15 29 20 40 6 11 10 29 10 40 0 11 6 20 13 20 9 0 9 2 -1 9 -10 6 -10
10 2 21 9 7 13 16 10 21 -3 5 -1 9 5 9 6 0 8 7 5 15 -4 8 -2 15 3 15 5 0 10
14 11 32 2 18 8 35 14 39 6 4 8 17 5 29 -4 16 -2 19 7 11 8 -7 12 -5 13 7 5
43 16 81 23 77 4 -2 7 6 6 18 -1 12 4 28 11 35 6 7 10 21 8 32 -2 11 0 18 6
15 5 -4 9 5 9 19 0 14 4 26 8 26 8 0 10 7 14 50 1 11 6 20 11 20 5 0 7 7 3 15
-3 8 -2 15 2 15 4 0 12 11 19 25 6 14 7 23 2 20 -4 -3 -2 7 6 22 8 15 15 36
15 46 0 10 4 16 8 13 5 -3 9 9 10 26 0 17 7 35 14 39 7 5 9 9 4 9 -5 0 -3 7 4
15 7 9 10 18 7 22 -4 3 -2 12 4 20 6 7 8 13 3 13 -5 0 -4 4 1 8 11 8 51 122
47 135 -1 4 2 7 7 7 5 0 12 18 16 40 4 22 11 40 17 40 6 0 8 7 4 15 -3 8 -1
15 4 15 6 0 9 3 9 8 -3 15 14 73 22 78 5 3 7 10 4 15 -4 5 -2 9 3 9 5 0 9 7
10 15 1 8 3 22 4 30 1 8 5 15 10 15 5 0 8 8 7 18 -2 9 4 31 14 48 9 17 13 34
10 38 -4 3 -1 6 5 6 7 0 11 3 11 8 -3 15 14 72 21 72 5 0 7 8 6 18 -2 9 3 26
11 38 7 11 10 24 6 27 -3 4 -2 7 4 7 5 0 10 7 11 15 1 8 3 22 4 30 1 8 5 15
10 15 5 0 6 5 3 10 -3 6 -1 10 6 10 7 0 10 3 6 6 -3 4 0 22 8 41 8 19 12 40 8
46 -4 6 0 8 8 5 11 -4 14 1 13 23 -1 16 3 29 9 29 6 0 7 3 4 6 -3 4 -1 16 5
28 7 11 11 25 10 29 -1 4 3 18 10 30 7 12 13 25 14 30 1 4 2 8 4 10 1 1 3 11
5 22 2 11 8 21 14 23 5 2 7 10 4 18 -3 8 0 21 7 29 7 8 9 15 5 15 -4 0 -2 6 4
13 6 8 12 22 14 33 2 10 9 33 16 49 7 17 15 42 18 58 3 15 10 27 16 27 6 0 8
3 4 6 -3 4 0 18 7 33 7 14 11 32 9 39 -3 6 0 12 6 12 6 0 10 3 10 8 -4 21 2
42 10 38 5 -4 8 1 7 11 -2 9 4 29 11 45 8 15 12 32 9 37 -3 5 1 14 9 21 8 7
15 23 15 36 0 13 5 24 11 24 5 0 8 3 5 8 -2 4 3 23 12 42 8 19 17 42 18 50 3
19 24 79 35 102 5 10 9 25 9 33 0 8 4 15 9 15 6 0 8 9 6 20 -2 11 0 20 4 20 7
0 20 43 21 65 0 3 7 19 15 35 9 17 12 30 8 30 -5 0 -2 4 4 8 7 5 14 20 15 35
1 15 6 27 11 27 5 0 7 11 5 24 -4 17 -1 23 9 19 9 -3 11 0 7 10 -3 8 -1 18 5
22 6 3 11 19 11 36 0 16 5 29 10 29 6 0 9 3 9 8 -1 4 0 10 1 15 1 4 4 12 5 17
1 6 4 12 5 15 1 3 3 8 5 13 5 18 17 48 26 66 8 14 8 16 -3 10 -11 -6 -11 -5 0
9 8 9 11 21 7 26 -4 7 1 8 11 4 12 -4 15 -3 10 6 -4 6 -2 19 6 28 8 11 9 14 1
10 -8 -5 -8 1 2 19 8 15 12 31 9 36 -3 4 0 8 6 8 7 0 9 7 6 16 -4 11 -2 15 8
11 10 -4 13 -1 9 9 -3 8 1 22 8 31 12 14 12 16 -1 8 -12 -6 -13 -5 -2 6 6 7
12 21 12 31 0 10 4 18 8 18 5 0 9 6 10 13 2 28 9 46 22 63 13 16 13 17 0 9
-12 -6 -13 -5 -2 6 6 7 12 21 12 31 0 10 5 18 11 18 5 0 8 4 5 9 -3 5 2 26 11
47 9 22 18 48 20 58 2 11 8 25 14 32 6 7 8 18 5 23 -4 5 -2 12 3 15 5 4 18 32
27 64 22 71 19 63 28 87 4 11 11 27 15 35 4 8 14 36 22 63 7 26 16 47 20 47 4
0 5 10 2 23 -5 22 -5 22 10 2 9 -11 17 -28 17 -37 0 -10 5 -18 10 -18 6 0 10
-6 10 -14 0 -8 5 -27 12 -43 6 -15 12 -30 13 -33 1 -3 9 -22 18 -43 9 -22 22
-56 28 -78 7 -21 16 -39 21 -39 4 0 7 -3 6 -7 -4 -20 24 -93 34 -87 7 4 8 3 4
-5 -4 -6 -3 -17 2 -24 5 -7 8 -20 7 -30 -2 -9 1 -15 6 -11 7 4 11 -11 9 -41
-1 -3 6 -13 15 -21 13 -14 17 -28 14 -50 0 -4 4 -10 11 -14 6 -4 12 -13 13
-21 2 -8 6 -20 11 -27 4 -7 6 -16 2 -19 -3 -3 2 -12 10 -20 8 -9 13 -22 10
-29 -3 -8 -2 -14 3 -14 5 0 15 -20 22 -45 7 -25 17 -45 22 -45 5 0 7 -6 4 -14
-3 -8 -2 -16 3 -18 5 -2 11 -14 13 -28 3 -14 12 -38 21 -54 8 -16 12 -34 9
-39 -3 -6 -1 -7 5 -3 8 5 12 -1 12 -18 0 -13 4 -26 9 -28 5 -1 11 -14 13 -28
1 -14 5 -27 9 -30 7 -7 44 -105 38 -105 -2 0 4 -11 14 -25 9 -13 17 -35 17
-47 0 -13 5 -23 10 -23 6 0 10 -9 10 -19 0 -11 5 -23 10 -26 6 -4 8 -10 5 -15
-3 -5 -1 -11 5 -15 5 -3 10 -17 10 -31 0 -17 4 -23 12 -18 7 5 9 0 6 -14 -3
-12 -2 -22 4 -24 5 -2 10 -13 11 -26 0 -12 5 -22 9 -22 4 0 8 -9 8 -19 0 -11
5 -23 10 -26 6 -3 10 -15 10 -26 0 -10 5 -19 11 -19 5 0 8 -3 6 -8 -3 -4 3
-25 14 -46 10 -21 16 -43 13 -47 -3 -5 0 -9 5 -9 6 0 11 -9 11 -19 0 -11 4
-21 9 -23 6 -1 12 -14 14 -28 3 -14 11 -38 18 -55 7 -16 12 -33 11 -37 -1 -5
2 -8 8 -8 5 0 10 -12 10 -26 0 -14 3 -23 8 -21 4 3 8 -6 8 -20 1 -13 10 -34
20 -45 13 -14 14 -19 4 -13 -12 6 -13 5 -2 -6 6 -7 12 -21 12 -31 0 -10 4 -18
9 -18 5 0 12 -16 15 -35 4 -19 11 -35 17 -35 6 0 8 -4 5 -8 -2 -4 4 -27 15
-51 10 -24 19 -49 19 -57 0 -8 4 -14 8 -14 5 0 9 -7 10 -15 1 -8 3 -22 4 -30
1 -8 6 -15 11 -15 5 0 6 -7 3 -16 -3 -8 -2 -12 4 -9 6 3 10 -3 10 -14 0 -12 5
-21 11 -21 5 0 8 -4 5 -9 -7 -11 22 -83 38 -93 7 -5 6 -8 -3 -8 -12 0 -12 -2
1 -12 14 -11 26 -46 30 -85 1 -7 5 -13 9 -13 6 0 20 -38 23 -62 1 -3 4 -10 9
-14 4 -4 7 -16 7 -26 0 -12 4 -16 12 -12 7 5 9 2 5 -9 -3 -8 1 -21 9 -28 8 -7
13 -18 10 -25 -3 -7 -1 -16 5 -19 5 -4 7 -11 4 -16 -4 -5 -2 -9 3 -9 6 0 13
-7 16 -16 4 -10 2 -13 -6 -8 -6 4 -4 -3 5 -17 9 -13 17 -31 17 -41 0 -10 5
-18 10 -18 6 0 10 -11 10 -25 0 -14 5 -25 11 -25 5 0 8 -4 4 -9 -3 -5 -1 -12
5 -16 6 -4 8 -11 5 -16 -4 -5 -1 -9 6 -9 7 0 9 -3 6 -6 -3 -4 -1 -16 5 -28 7
-11 13 -24 14 -28 1 -5 3 -11 4 -15 1 -5 2 -11 1 -15 0 -5 4 -8 11 -8 6 0 8
-3 5 -6 -3 -4 -2 -15 4 -26 6 -11 12 -29 14 -40 3 -12 10 -25 17 -30 7 -4 10
-8 5 -8 -4 0 -1 -13 8 -30 8 -16 16 -33 16 -37 1 -5 7 -23 15 -42 8 -18 11
-38 7 -44 -3 -5 -1 -7 4 -4 9 5 23 -33 22 -58 0 -3 7 -13 16 -22 9 -8 14 -21
11 -29 -3 -7 0 -14 6 -16 6 -2 13 -15 15 -28 2 -13 7 -27 11 -30 4 -3 9 -16
10 -30 2 -14 8 -26 13 -28 5 -2 9 -11 9 -21 0 -9 9 -36 20 -59 11 -23 23 -56
26 -72 4 -17 11 -27 17 -23 6 4 8 0 4 -10 -3 -9 -2 -19 3 -22 6 -4 10 -15 10
-26 0 -10 5 -19 12 -19 6 0 9 -3 5 -6 -3 -4 0 -19 9 -35 8 -16 12 -29 9 -29
-3 0 4 -17 15 -37 11 -21 20 -46 20 -56 0 -10 4 -15 10 -12 5 3 8 0 5 -7 -3
-7 4 -24 15 -38 11 -14 20 -19 20 -12 0 8 12 26 28 42 53 56 72 78 72 84 0 4
11 17 25 30 14 13 25 28 25 35 0 6 5 11 11 11 16 0 41 29 34 40 -3 5 -2 10 3
10 5 0 23 14 40 30 18 17 29 30 27 30 -3 0 0 6 7 14 7 8 16 12 21 9 4 -2 7 3
7 11 0 8 9 21 20 29 11 8 17 16 14 19 -3 4 4 9 15 13 12 3 19 10 16 14 -2 4 8
19 23 32 20 18 39 24 72 24 25 1 51 5 59 9 10 7 12 6 6 -4 -6 -10 -4 -12 7 -7
9 3 21 0 28 -6 10 -9 11 -9 5 2 -6 11 -3 13 13 9 12 -4 25 -2 28 3 3 6 11 5
20 -2 10 -8 18 -9 27 0 8 6 17 8 20 4 4 -3 20 -6 37 -5 21 0 28 -3 23 -11 -3
-7 3 -4 14 6 15 13 23 15 28 7 6 -9 10 -9 16 1 5 8 9 9 9 4 0 -6 35 -10 90
-10 49 0 90 4 90 8 0 4 9 3 20 -3 11 -6 20 -8 20 -4 0 3 8 0 17 -7 14 -12 16
-12 8 0 -6 11 -3 13 13 9 12 -4 25 -2 28 3 3 6 11 5 20 -2 10 -8 18 -9 27 0 8
6 17 8 20 4 4 -3 20 -6 37 -5 21 0 28 -3 23 -11 -3 -7 3 -4 14 6 15 13 23 15
28 7 6 -9 10 -9 16 1 5 8 9 9 9 4 0 -6 35 -10 90 -10 49 0 90 4 90 8 0 4 9 3
20 -3 11 -6 20 -8 20 -4 0 3 8 0 17 -7 14 -12 16 -12 8 0 -6 11 -3 13 13 9 12
-4 25 -2 28 3 3 6 11 5 20 -2 10 -8 18 -9 27 0 8 6 17 8 20 4 4 -3 20 -6 37
-5 21 0 28 -3 23 -11 -3 -7 3 -4 14 6 15 13 23 15 28 7 6 -9 10 -9 16 1 5 8 9
9 9 4 0 -6 35 -10 90 -10 49 0 90 4 90 8 0 4 9 3 20 -3 11 -6 20 -8 20 -4 0 3
8 0 17 -7 14 -12 16 -12 8 0 -6 11 -3 13 13 9 12 -4 25 -2 28 3 3 6 11 5 20
-2 10 -8 18 -9 27 0 8 6 17 8 20 4 4 -3 20 -6 37 -5 21 0 28 -3 23 -11 -3 -7
3 -4 14 6 15 13 23 15 28 7 6 -9 10 -9 16 1 5 8 9 9 9 4 0 -6 35 -10 90 -10
49 0 90 4 90 8 0 4 9 3 20 -3 11 -6 20 -8 20 -4 0 3 8 0 17 -7 14 -12 16 -12
8 0 -6 11 -3 13 13 9 12 -4 25 -2 28 3 3 6 11 5 20 -2 11 -9 18 -8 31 2 14 12
16 12 8 0 -6 -10 -4 -12 4 -6 9 5 11 19 6 42 -5 26 -3 33 6 27 9 -5 9 -3 3 7
-5 8 -10 32 -11 54 -1 22 -3 70 -4 107 -2 37 -7 64 -11 62 -4 -3 -3 7 2 21 5
14 6 24 2 21 -4 -2 -9 19 -10 47 -3 97 -14 182 -23 185 -6 3 -5 9 1 17 8 9 8
15 0 20 -5 3 -10 20 -10 36 0 17 -5 40 -11 51 -9 16 -8 19 2 13 8 -6 10 -4 4
5 -4 7 -10 31 -13 54 -2 23 -8 43 -12 46 -4 3 -6 14 -4 24 1 11 0 25 -4 30 -3
6 -7 20 -9 31 -5 48 -36 171 -45 183 -7 8 -6 12 3 12 12 0 12 2 0 9 -8 5 -12
18 -8 30 3 12 1 19 -4 15 -5 -3 -10 1 -10 8 -1 7 -3 24 -4 37 -1 13 -6 26 -11
30 -5 3 -10 17 -12 31 -1 14 -5 32 -9 40 -3 8 -8 24 -10 34 -2 11 -8 25 -14
33 -6 7 -9 13 -6 13 5 0 -40 142 -60 190 -3 8 -7 17 -8 20 -6 17 -28 69 -40
93 -9 19 -10 25 -2 20 7 -3 4 3 -5 14 -10 11 -18 27 -18 36 0 9 -5 19 -10 22
-6 4 -8 11 -5 16 4 5 1 9 -4 9 -6 0 -11 4 -11 10 0 5 -16 45 -36 87 -20 43
-36 82 -37 88 -1 5 -8 16 -15 23 -7 8 -10 17 -7 22 3 4 -2 10 -10 14 -8 3 -15
11 -15 19 0 18 -23 67 -32 67 -5 0 -8 6 -8 14 0 7 -11 30 -25 50 -13 20 -21
36 -17 36 4 0 3 4 -3 8 -5 4 -21 27 -34 52 -13 25 -31 53 -39 63 -8 9 -12 17
-8 17 4 0 -4 14 -18 31 -14 17 -24 35 -20 40 3 5 0 9 -6 9 -5 0 -18 16 -27 35
-9 19 -20 32 -25 29 -4 -3 -5 1 -2 9 3 8 -2 17 -11 21 -9 3 -13 10 -10 16 3 5
1 10 -4 10 -6 0 -11 4 -11 10 0 5 -10 21 -22 36 -13 14 -23 30 -23 35 0 5 -12
20 -27 33 -15 12 -25 25 -23 28 3 3 -6 17 -19 31 -14 15 -23 27 -20 27 3 0 -1
6 -8 13 -7 8 -26 31 -43 52 -16 22 -43 53 -59 70 -16 16 -29 32 -28 35 0 3
-18 26 -41 52 -87 97 -132 149 -135 158 -2 6 -10 10 -18 10 -8 0 -14 4 -14 9
0 10 -216 231 -226 231 -3 0 -24 20 -47 45 -24 25 -48 45 -55 45 -7 0 -12 7
-12 16 0 8 -4 13 -8 10 -5 -3 -16 6 -26 20 -11 13 -23 24 -29 24 -5 0 -23 13
-38 30 -16 16 -29 28 -29 25 0 -3 -10 4 -22 14 -13 11 -34 29 -47 40 -13 12
-28 21 -33 21 -5 0 -6 4 -3 10 4 6 -1 7 -11 3 -12 -4 -15 -3 -10 5 4 7 1 12
-8 12 -8 0 -16 3 -18 8 -6 14 -76 61 -82 55 -3 -4 -6 1 -6 11 0 9 -4 14 -10
11 -5 -3 -10 -1 -10 4 0 6 -7 11 -15 11 -8 0 -15 5 -15 10 0 6 -6 10 -14 10
-8 0 -16 4 -18 8 -5 13 -82 57 -93 54 -5 -2 -7 0 -3 4 10 9 -22 33 -45 34 -10
0 -16 3 -13 8 2 4 -13 16 -35 26 -21 11 -39 23 -39 28 0 4 -9 8 -20 8 -11 0
-20 5 -20 11 0 5 -4 8 -8 5 -5 -3 -14 3 -22 14 -7 10 -18 16 -25 14 -6 -3 -19
4 -29 15 -10 11 -23 18 -27 15 -5 -3 -9 0 -9 6 0 6 -4 9 -9 5 -5 -3 -12 -1
-16 5 -4 6 -11 8 -16 4 -5 -3 -8 0 -7 7 2 7 -3 14 -9 15 -7 1 -16 3 -20 4 -5
1 -11 2 -15 1 -5 0 -8 3 -8 8 0 9 -32 24 -55 26 -5 0 -9 7 -7 13 1 7 -3 12
-10 11 -21 -2 -58 13 -58 24 0 6 -3 8 -6 4 -4 -3 -26 5 -49 18 -24 13 -46 21
-49 18 -3 -4 -6 0 -6 7 0 7 -3 11 -6 8 -3 -4 -17 0 -31 7 -15 8 -30 12 -35 9
-4 -3 -8 2 -8 10 0 9 -7 13 -20 11 -11 -2 -20 0 -20 4 0 5 -20 14 -45 21 -24
7 -43 16 -41 19 4 6 -11 10 -51 13 -7 1 -13 5 -13 10 0 4 -11 8 -24 8 -13 0
-29 7 -36 15 -7 8 -15 13 -19 11 -11 -7 -111 30 -103 39 4 5 2 5 -4 2 -7 -4
-31 0 -54 8 -23 8 -46 12 -51 9 -5 -3 -9 0 -9 5 0 6 -11 11 -24 11 -14 0 -28
5 -32 11 -3 6 -19 9 -35 7 -16 -3 -27 0 -26 6 1 6 -10 11 -25 10 -16 0 -28 4
-28 9 0 4 -4 5 -10 2 -5 -3 -10 -1 -10 5 0 6 -5 8 -10 5 -6 -4 -25 -1 -44 5
-45 15 -77 22 -103 23 -13 1 -23 4 -23 7 0 4 -17 8 -37 9 -21 1 -44 3 -50 3
-7 1 -13 5 -13 9 0 4 -11 6 -25 4 -14 -1 -28 1 -30 6 -3 4 -14 6 -25 4 -11 -2
-20 1 -20 7 0 5 -7 7 -16 4 -8 -3 -25 -1 -36 5 -11 6 -18 7 -15 2 4 -5 0 -10
-8 -10 -8 0 -12 4 -9 8 2 4 -4 8 -13 8 -66 -1 -103 5 -103 15 0 6 -5 4 -10 -4
-5 -8 -10 -10 -10 -4 0 6 -17 10 -40 10 -22 -1 -40 2 -40 5 0 4 -7 10 -16 13
-8 3 -13 2 -10 -3 3 -5 -12 -8 -34 -7 -22 0 -40 4 -40 7 0 3 -11 4 -24 2 -13
-3 -27 0 -31 7 -5 8 -10 8 -21 -1 -11 -9 -14 -9 -14 1 0 10 -3 10 -15 0 -12
-10 -15 -10 -15 0 0 9 -4 9 -17 -1 -11 -10 -14 -10 -9 -1 4 6 3 12 -1 12 -5 0
-15 -6 -22 -12 -10 -10 -12 -10 -7 -1 5 10 -50 12 -244 12 -194 0 -249 -2
-244 -12 5 -9 3 -9 -7 1 -7 6 -17 12 -22 12 -4 0 -5 -6 -1 -12 6 -10 4 -10 -8
0 -12 10 -18 10 -23 1 -6 -8 -10 -7 -16 2 -8 12 -10 12 -18 0 -7 -11 -9 -11
-14 0 -3 8 -6 9 -6 4z"/>
<path d="M5705 5928 c-4 -18 -7 -36 -6 -40 0 -5 -3 -8 -9 -8 -5 0 -7 -7 -4
-15 4 -8 2 -15 -3 -15 -5 0 -10 -6 -11 -12 -2 -29 -9 -50 -18 -56 -5 -4 -10
-18 -12 -32 -1 -14 -7 -27 -12 -28 -6 -2 -8 -7 -5 -12 3 -5 1 -19 -4 -32 -10
-26 -22 -62 -22 -65 0 -2 -9 -24 -20 -50 -22 -51 -30 -78 -32 -105 -1 -9 -5
-14 -9 -12 -7 5 -12 -10 -9 -28 0 -4 -8 -28 -19 -53 -11 -25 -16 -45 -12 -45
4 0 1 -4 -7 -9 -7 -5 -14 -22 -14 -39 -1 -17 -5 -28 -9 -26 -5 3 -9 -2 -9 -10
-1 -16 -4 -28 -9 -43 -1 -5 -2 -11 -1 -15 0 -5 -3 -8 -9 -8 -5 0 -10 -10 -10
-23 0 -13 -6 -29 -12 -36 -11 -11 -10 -12 2 -6 12 7 12 5 -1 -11 -26 -32 -34
-48 -18 -39 8 5 7 0 -3 -12 -10 -11 -18 -32 -18 -47 0 -15 -4 -25 -9 -22 -5 3
-8 -8 -7 -24 2 -23 -2 -29 -12 -25 -9 3 -12 -1 -7 -15 4 -11 2 -20 -4 -20 -6
0 -10 -3 -10 -7 5 -28 -2 -53 -13 -47 -6 4 -8 3 -5 -3 3 -5 0 -22 -8 -37 -10
-18 -10 -24 -2 -19 9 5 9 3 1 -8 -11 -13 -35 -79 -40 -107 -1 -7 -10 -25 -19
-39 -9 -14 -12 -22 -6 -19 6 4 11 2 11 -3 0 -6 -4 -11 -10 -11 -5 0 -10 -9
-10 -20 0 -11 -5 -20 -10 -20 -6 0 -10 -6 -9 -12 3 -21 -13 -78 -20 -74 -4 3
-8 -9 -9 -27 -2 -17 -7 -36 -12 -42 -5 -7 -7 -15 -3 -18 3 -4 1 -7 -6 -7 -7 0
-10 -4 -6 -9 3 -5 1 -12 -4 -16 -6 -3 -7 -13 -4 -22 4 -11 3 -14 -5 -9 -11 6
-18 -26 -13 -56 0 -5 -4 -8 -10 -8 -5 0 -7 -4 -4 -10 3 -5 1 -10 -6 -10 -7 0
-10 -3 -6 -6 3 -4 0 -19 -8 -35 -8 -15 -15 -37 -15 -49 0 -11 -5 -20 -11 -20
-5 0 -8 -4 -5 -9 3 -4 -3 -24 -13 -44 -10 -20 -14 -34 -9 -31 6 4 2 -5 -7 -20
-10 -14 -14 -26 -10 -26 4 0 2 -7 -5 -15 -6 -8 -9 -18 -6 -24 3 -5 2 -11 -3
-13 -5 -1 -11 -12 -13 -23 -1 -11 -7 -23 -11 -26 -4 -3 -9 -16 -10 -27 -1 -12
-5 -22 -10 -22 -4 0 -5 -4 -2 -10 3 -5 3 -16 -2 -22 -4 -7 -8 -15 -9 -18 0 -3
-6 -18 -12 -33 -7 -16 -12 -34 -12 -42 0 -8 -5 -17 -11 -20 -6 -4 -8 -13 -5
-21 3 -8 1 -14 -4 -14 -4 0 -12 -15 -16 -32 -10 -41 -9 -39 -18 -63 -4 -11
-13 -33 -19 -50 -6 -16 -16 -33 -21 -37 -7 -5 -6 -8 3 -8 11 0 11 -3 1 -15 -6
-8 -9 -19 -5 -25 3 -5 0 -10 -8 -10 -8 0 -14 -10 -14 -22 0 -13 -9 -45 -21
-71 -12 -27 -22 -57 -22 -68 0 -10 -5 -19 -11 -19 -5 0 -8 -4 -4 -9 3 -5 1
-12 -5 -16 -6 -4 -8 -10 -5 -15 3 -5 1 -11 -5 -15 -6 -4 -8 -11 -5 -16 4 -5 1
-9 -5 -9 -6 0 -9 -4 -6 -9 3 -5 -1 -22 -9 -37 -8 -16 -15 -36 -15 -45 0 -9 -3
-19 -7 -23 -4 -3 -8 -14 -9 -24 -2 -9 -7 -18 -12 -20 -6 -2 -8 -12 -5 -22 3
-12 0 -20 -6 -20 -7 0 -10 -4 -7 -8 3 -5 -2 -22 -10 -38 -9 -16 -15 -30 -15
-31 3 -15 -13 -61 -20 -58 -4 3 -6 -3 -4 -15 2 -11 0 -22 -6 -25 -5 -4 -9 -17
-9 -31 0 -13 -5 -24 -12 -24 -6 0 -8 -3 -5 -7 4 -3 2 -12 -4 -20 -6 -7 -8 -13
-4 -13 4 0 2 -7 -5 -15 -6 -8 -9 -18 -6 -24 3 -5 3 -11 -1 -13 -5 -1 -21 -43
-38 -93 -16 -49 -34 -93 -40 -97 -5 -4 -6 -10 -2 -14 4 -4 0 -16 -10 -26 -12
-13 -13 -18 -3 -18 10 0 9 -5 -3 -18 -10 -10 -18 -31 -19 -45 -1 -15 -5 -27
-9 -27 -6 0 -21 -49 -23 -75 -1 -5 -5 -13 -9 -16 -5 -4 -10 -18 -10 -33 -1
-14 -5 -26 -9 -26 -5 0 -8 -7 -8 -15 0 -8 -4 -15 -9 -15 -6 0 -8 -9 -6 -20 2
-11 0 -20 -4 -20 -4 0 -8 -7 -9 -15 -1 -8 -3 -22 -4 -30 -1 -8 -5 -15 -9 -15
-7 0 -24 -65 -22 -87 0 -7 -3 -10 -8 -7 -5 3 -9 -5 -9 -18 0 -13 -7 -34 -16
-46 -8 -12 -12 -22 -8 -22 3 0 1 -6 -5 -13 -6 -8 -8 -17 -4 -20 3 -4 2 -7 -3
-7 -5 0 -11 -9 -12 -20 -4 -43 -6 -50 -14 -50 -4 0 -7 -3 -6 -7 1 -9 -9 -40
-23 -65 -5 -10 -9 -27 -9 -38 0 -11 -4 -20 -9 -20 -6 0 -8 -9 -6 -19 2 -11 -3
-25 -10 -31 -8 -6 -11 -18 -8 -26 3 -8 0 -14 -6 -14 -6 0 -10 -3 -10 -7 1 -5
0 -10 -1 -13 -3 -10 -11 -45 -12 -57 -2 -26 -31 -8 -36 22 -2 11 -7 22 -12 25
-4 3 -11 20 -15 38 -3 17 -11 32 -16 32 -5 0 -8 6 -6 13 1 6 -3 11 -9 10 -6
-1 -10 9 -8 22 1 14 -2 25 -7 25 -5 0 -9 9 -9 20 0 11 -4 20 -10 20 -5 0 -10
9 -10 19 0 11 -4 23 -10 26 -5 3 -10 14 -10 24 0 9 -5 22 -12 29 -6 6 -13 17
-14 24 -1 7 -18 47 -38 89 -20 42 -36 82 -36 88 0 6 -4 11 -10 11 -5 0 -9 3
-9 8 1 4 0 10 -1 15 -1 4 -3 10 -5 15 -1 4 -12 30 -25 57 -13 28 -23 53 -22
58 1 4 -3 7 -9 7 -6 0 -9 7 -5 15 3 8 2 15 -2 15 -4 0 -13 15 -21 32 -8 18
-26 60 -41 93 -15 33 -30 70 -34 83 -4 12 -12 22 -18 22 -6 0 -9 3 -6 6 4 3 0
17 -7 31 -8 15 -12 30 -9 35 3 4 1 8 -4 8 -13 0 -33 56 -24 66 4 4 1 4 -5 0
-9 -5 -13 0 -13 13 0 11 -6 26 -13 33 -8 7 -12 19 -9 26 2 6 -1 12 -6 12 -8 0
-18 22 -27 60 0 3 -7 16 -15 30 -8 14 -15 27 -15 30 -1 3 -9 22 -18 44 -9 21
-14 43 -10 49 3 6 1 7 -5 3 -11 -6 -16 6 -13 27 0 4 -4 7 -9 7 -6 0 -10 6 -10
13 0 18 -23 67 -32 67 -4 0 -5 7 -2 15 4 8 1 15 -5 15 -6 0 -10 3 -9 8 0 4 -7
25 -17 47 -10 22 -19 43 -19 47 -1 3 -4 10 -8 14 -5 4 -8 16 -8 26 0 11 -4 16
-10 13 -6 -4 -10 5 -10 19 0 14 -5 26 -11 26 -6 0 -9 7 -5 15 3 8 2 15 -3 15
-8 0 -24 38 -22 53 1 4 -4 7 -9 7 -6 0 -10 9 -10 20 0 11 -4 20 -10 20 -5 0
-10 9 -10 20 0 11 -9 36 -20 55 -11 20 -17 42 -14 48 4 7 4 9 -1 5 -10 -9 -37
40 -29 53 3 5 0 9 -5 9 -6 0 -11 9 -11 21 0 11 -4 17 -10 14 -6 -4 -10 5 -10
19 0 14 -5 26 -11 26 -5 0 -7 5 -4 10 3 6 -1 17 -9 26 -9 9 -14 20 -11 25 4 5
1 9 -4 9 -6 0 -11 9 -11 20 0 11 -5 20 -11 20 -5 0 -8 4 -5 8 3 5 -4 23 -15
41 -11 18 -17 36 -14 40 2 5 -2 14 -10 21 -8 7 -12 16 -9 21 3 5 1 9 -4 9 -5
0 -12 13 -15 29 -3 16 -13 35 -21 44 -8 8 -13 17 -10 20 6 5 -16 48 -29 58 -4
3 -9 16 -10 27 -1 12 -5 22 -10 22 -4 0 -5 5 -2 10 3 6 1 10 -6 10 -7 0 -10 3
-6 6 3 4 -1 21 -10 38 -9 17 -18 37 -19 45 -2 8 -9 18 -16 22 -7 5 -9 9 -5 9
4 0 2 10 -5 23 -6 12 -13 28 -14 35 -1 8 -11 23 -21 35 -12 14 -13 18 -3 12
11 -6 10 -3 -2 12 -10 11 -18 25 -18 32 0 7 -7 19 -15 27 -8 8 -12 21 -9 29 4
8 2 15 -3 15 -6 0 -16 18 -23 40 -7 22 -17 40 -22 40 -5 0 -7 4 -3 9 3 5 1 12
-5 16 -6 4 -8 11 -5 16 4 5 1 9 -4 9 -6 0 -11 9 -11 19 0 11 -5 23 -10 26 -6
4 -8 11 -5 16 4 5 1 9 -5 9 -6 0 -8 5 -5 10 3 6 1 10 -5 10 -7 0 -10 6 -8 12
3 7 -1 19 -9 26 -7 7 -13 22 -13 33 0 11 -7 22 -15 25 -8 4 -13 10 -10 14 3 5
-4 25 -15 44 -11 20 -20 38 -20 41 -1 7 -41 99 -45 103 -7 7 -35 -26 -35 -40
0 -7 -9 -21 -20 -31 -12 -10 -18 -23 -14 -29 4 -6 3 -8 -3 -5 -5 3 -17 -9 -26
-28 -9 -19 -21 -35 -27 -35 -5 0 -10 -5 -10 -11 0 -11 -66 -115 -87 -137 -7
-7 -13 -19 -13 -27 0 -7 -7 -15 -15 -19 -8 -3 -15 -12 -15 -21 0 -8 -3 -15 -8
-15 -8 0 -15 -11 -48 -78 -11 -23 -23 -39 -26 -36 -4 3 -9 -4 -13 -15 -3 -12
-11 -21 -16 -21 -5 0 -9 -7 -9 -15 0 -8 -9 -24 -20 -35 -11 -11 -17 -20 -14
-20 3 0 -1 -7 -8 -15 -26 -28 -38 -45 -41 -52 -1 -4 -374 -7 -829 -7 -785 0
-827 -1 -831 -18 -3 -10 -2 -18 2 -18 4 0 8 -17 9 -37 2 -21 6 -40 10 -43 4
-3 7 -15 6 -27 -1 -13 2 -23 6 -23 4 0 6 -10 6 -22 -1 -13 2 -29 7 -35 5 -7 7
-20 3 -28 -3 -8 -1 -15 4 -15 6 0 10 -8 10 -18 0 -10 3 -22 6 -25 4 -4 8 -19
9 -34 2 -16 9 -41 16 -58 7 -16 14 -40 15 -52 2 -12 7 -31 13 -41 6 -11 8 -22
4 -25 -3 -4 2 -18 11 -32 9 -14 14 -25 12 -25 -3 0 1 -15 9 -34 8 -18 11 -36
8 -40 -4 -3 -1 -6 5 -6 6 0 9 -7 6 -15 -4 -8 -2 -15 3 -15 5 0 16 -22 23 -50
7 -27 18 -50 23 -50 6 0 7 -3 4 -7 -4 -3 -2 -12 3 -19 6 -6 10 -16 8 -20 -1
-5 3 -19 10 -32 7 -12 10 -27 7 -32 -3 -6 1 -10 9 -10 9 0 13 -6 10 -15 -3 -8
1 -22 10 -31 9 -8 14 -20 11 -25 -4 -5 -2 -9 3 -9 5 0 12 -13 15 -29 3 -16 13
-36 22 -44 8 -9 15 -21 15 -27 0 -7 11 -34 24 -60 13 -27 22 -51 19 -54 -4 -3
-1 -6 5 -6 7 0 12 -7 12 -15 0 -8 5 -15 11 -15 5 0 8 -4 5 -9 -3 -5 1 -14 9
-21 8 -7 15 -20 15 -29 0 -9 9 -27 20 -41 11 -14 20 -31 20 -37 0 -7 5 -13 11
-13 5 0 7 -4 4 -10 -3 -5 -1 -10 4 -10 6 0 10 -3 9 -7 -2 -8 50 -102 62 -113
3 -3 14 -22 25 -42 11 -21 24 -38 29 -38 5 0 7 -3 3 -6 -3 -4 5 -21 18 -39 14
-17 25 -37 25 -43 0 -7 3 -12 8 -12 4 0 16 -18 26 -40 10 -22 23 -37 27 -34 5
3 9 -2 9 -10 0 -8 9 -21 21 -29 15 -11 17 -16 7 -20 -8 -4 -7 -6 5 -6 10 -1
16 -5 12 -10 -3 -5 5 -17 17 -25 12 -9 18 -16 13 -16 -6 0 -2 -5 7 -11 10 -5
18 -14 18 -20 0 -10 2 -13 49 -70 17 -20 28 -39 24 -43 -3 -3 1 -6 10 -6 10 0
17 -4 17 -9 0 -6 10 -21 22 -35 44 -47 58 -66 58 -77 0 -5 5 -7 10 -4 6 3 10
1 10 -5 0 -6 13 -24 30 -40 16 -16 30 -32 30 -35 0 -4 27 -33 60 -66 33 -32
58 -59 56 -59 -2 0 30 -34 71 -75 42 -41 79 -75 83 -75 4 0 13 -11 20 -25 9
-17 19 -24 29 -20 8 3 13 3 9 0 -9 -10 24 -45 35 -38 6 3 7 1 3 -6 -4 -6 0
-14 10 -18 25 -9 74 -60 66 -69 -4 -4 -2 -4 4 -1 6 4 21 -5 34 -18 13 -13 27
-22 31 -19 5 3 9 -2 9 -10 0 -9 3 -16 8 -16 4 0 20 -11 35 -25 15 -14 27 -23
27 -19 0 4 8 -1 18 -12 10 -10 31 -28 46 -39 16 -11 34 -25 41 -32 7 -7 15 -9
19 -6 3 4 6 -1 6 -10 0 -9 5 -19 12 -23 7 -5 8 -3 3 6 -5 7 4 5 18 -6 15 -10
27 -22 27 -26 0 -5 7 -8 16 -8 8 0 13 -4 10 -9 -3 -5 4 -11 17 -15 12 -3 35
-17 51 -31 16 -14 35 -25 41 -25 7 0 16 -7 19 -16 3 -8 10 -12 16 -9 5 3 10 2
10 -3 0 -5 23 -21 50 -36 28 -15 50 -32 50 -37 0 -6 4 -7 10 -4 6 3 10 1 10
-4 0 -6 4 -11 9 -11 4 0 48 -23 97 -52 49 -28 107 -60 129 -71 22 -11 43 -25
47 -31 4 -6 8 -8 8 -4 0 3 38 -13 85 -37 47 -24 85 -41 85 -38 0 3 8 -2 19
-11 10 -9 28 -18 40 -19 11 -1 21 -5 21 -9 0 -4 7 -8 15 -8 8 0 15 -4 15 -10
0 -5 7 -7 15 -4 8 4 15 1 15 -6 0 -6 5 -8 10 -5 6 3 10 1 10 -5 0 -6 4 -9 9
-6 4 3 17 -1 27 -9 10 -8 27 -15 37 -15 9 0 17 -4 17 -10 0 -5 7 -7 15 -4 8 4
15 1 15 -4 0 -6 9 -9 20 -7 11 2 18 0 15 -6 -4 -5 5 -9 19 -9 14 0 26 -4 26
-8 0 -5 24 -14 53 -21 28 -8 61 -21 71 -30 16 -13 18 -13 11 -1 -8 13 -6 13 8
1 9 -7 25 -10 34 -7 10 4 14 4 10 0 -8 -8 57 -34 86 -34 9 0 17 -4 17 -8 0 -5
6 -9 13 -9 6 0 32 -5 57 -11 24 -6 46 -9 48 -7 3 2 11 -3 19 -11 8 -8 19 -12
24 -9 5 4 9 2 9 -2 0 -5 14 -8 30 -7 17 1 30 -2 30 -7 0 -5 18 -9 41 -9 22 0
38 -4 35 -9 -3 -4 5 -8 17 -8 48 -1 58 -3 51 -14 -4 -8 0 -8 15 0 11 7 21 8
21 3 0 -4 10 -9 23 -10 42 -3 92 -15 105 -24 8 -7 12 -7 12 1 0 7 5 9 13 4 14
-9 24 -11 97 -19 30 -4 57 -11 58 -15 2 -5 9 -6 15 -2 17 10 38 13 32 4 -4 -7
65 -14 118 -13 9 1 15 -3 13 -7 -3 -4 1 -8 9 -8 8 0 11 5 8 10 -4 6 -1 7 7 2
7 -5 50 -10 94 -12 45 -3 86 -9 93 -14 6 -6 14 -6 17 -1 6 10 36 9 54 -2 7 -4
12 -2 12 4 0 6 5 8 12 4 17 -10 368 -11 368 0 0 5 6 3 14 -3 10 -9 16 -9 21
-1 5 8 10 8 20 0 8 -6 16 -7 19 -2 3 5 21 8 41 7 19 -1 35 3 35 9 0 6 7 3 14
-7 10 -13 15 -14 19 -5 3 9 21 12 51 11 26 -1 44 2 42 6 -3 4 1 8 9 8 8 0 12
-4 10 -8 -3 -4 3 -6 12 -4 10 2 18 4 18 6 0 2 56 7 103 8 18 1 31 5 28 9 -3 5
1 9 9 9 8 0 11 -5 8 -11 -5 -8 -3 -8 8 -1 8 6 30 11 49 10 19 0 38 4 41 9 4 5
29 9 56 10 26 1 53 5 59 9 6 3 28 7 50 8 21 1 44 6 51 11 6 5 17 8 25 7 17 -3
68 9 92 22 14 8 16 8 10 -3 -6 -11 -5 -11 8 0 9 7 30 14 47 14 17 1 28 4 26 8
-3 4 1 7 8 7 25 -3 97 15 97 24 0 5 5 9 11 9 5 0 8 -4 4 -10 -3 -5 7 -3 21 5
15 8 31 12 36 9 4 -3 8 -1 8 5 0 5 9 8 20 6 11 -2 20 0 20 6 0 5 9 9 20 9 10
0 29 4 42 9 43 17 63 24 83 28 11 2 24 8 29 13 4 4 15 6 24 3 11 -5 13 -3 7 7
-6 10 -4 12 7 7 9 -3 21 0 27 6 6 6 11 7 11 3 0 -5 7 -3 15 4 8 7 15 10 15 6
0 -3 16 3 36 14 19 11 33 16 30 11 -3 -5 5 -4 19 2 14 7 25 16 25 20 0 5 5 5
11 1 6 -3 14 -2 18 3 3 5 29 17 56 27 80 29 105 40 105 48 0 5 9 8 19 8 11 0
23 5 26 10 4 6 11 8 16 5 5 -4 9 -1 9 5 0 6 5 8 10 5 6 -3 10 -2 10 3 0 9 37
25 53 23 4 -1 7 4 7 11 0 6 3 8 6 5 4 -4 20 3 36 14 16 12 35 22 43 23 8 1 22
10 33 19 10 9 22 14 25 10 4 -3 7 -1 7 6 0 7 5 9 10 6 6 -3 10 -1 10 4 0 6 7
11 15 11 8 0 15 5 15 11 0 5 5 7 10 4 6 -3 10 -1 10 4 0 6 3 10 8 10 20 -3 43
2 38 9 -3 5 20 20 50 35 29 15 54 31 54 37 0 5 3 9 8 8 4 -1 17 3 28 10 12 6
25 8 29 4 5 -4 4 -1 0 7 -6 11 -4 13 8 8 9 -3 16 -2 14 2 -3 14 181 131 206
131 12 0 33 -7 45 -16 12 -8 22 -12 22 -8 0 3 7 1 15 -6 8 -6 20 -8 26 -4 8 4
9 3 5 -4 -4 -7 0 -12 11 -13 31 -1 56 -7 62 -16 3 -4 17 -10 31 -11 14 -2 27
-8 28 -13 2 -5 15 -9 28 -9 13 0 24 -4 24 -9 0 -6 9 -8 20 -6 11 2 18 0 15 -6
-4 -5 3 -9 15 -9 12 0 31 -5 43 -12 12 -7 27 -13 32 -14 29 -6 41 -10 46 -17
3 -4 16 -9 27 -10 12 -1 22 -4 22 -7 0 -3 10 -6 22 -7 11 -1 25 -8 29 -15 5
-7 9 -10 9 -5 0 4 13 1 29 -8 23 -11 31 -12 34 -2 3 7 6 5 6 -5 1 -11 8 -16
20 -13 11 2 25 -3 31 -10 6 -8 18 -11 26 -8 8 3 14 0 14 -7 0 -7 7 -10 15 -6
8 3 15 1 15 -5 0 -6 7 -9 15 -5 8 3 15 1 15 -5 0 -6 6 -9 12 -6 7 2 19 -3 26
-12 10 -12 12 -13 6 -1 -6 12 -5 13 7 4 8 -6 32 -17 54 -24 22 -7 44 -16 49
-21 6 -5 20 -9 33 -9 13 0 23 -4 23 -9 0 -5 12 -11 28 -14 15 -3 41 -11 57
-18 17 -7 38 -14 48 -16 11 -2 28 -10 39 -17 11 -8 26 -12 33 -10 7 3 16 1 20
-5 3 -6 15 -11 26 -11 10 0 19 -4 19 -10 0 -5 3 -9 8 -9 4 1 9 0 12 -1 3 -1
13 -3 23 -5 10 -2 26 -7 35 -11 9 -4 19 -8 22 -9 3 -1 19 -8 35 -15 17 -7 44
-15 60 -17 17 -3 33 -11 38 -18 4 -8 14 -12 22 -9 8 4 15 2 15 -3 0 -5 7 -10
15 -11 8 -1 22 -3 30 -4 8 -1 15 -6 15 -11 0 -6 3 -8 6 -4 3 3 26 -3 50 -13
24 -11 44 -16 44 -13 0 4 5 2 12 -5 7 -7 20 -12 30 -12 10 0 18 -4 18 -8 0 -5
7 -9 15 -10 8 -1 22 -3 30 -4 8 -1 15 -6 15 -11 0 -5 6 -7 14 -4 8 3 20 0 26
-8 6 -8 18 -11 26 -8 8 3 14 1 14 -5 0 -5 10 -9 23 -8 13 1 21 -4 19 -12 -1
-7 3 -12 10 -11 19 3 78 -13 78 -20 0 -6 17 -10 58 -13 6 -1 12 -5 12 -9 0 -4
23 -13 50 -20 28 -7 50 -17 50 -23 0 -5 3 -6 7 -3 3 4 17 0 31 -9 13 -9 21
-11 17 -5 -3 6 9 3 28 -8 21 -11 34 -15 32 -8 -10 39 -18 56 -25 52 -5 -3 -11
8 -15 25 -4 16 -11 30 -16 30 -5 0 -9 3 -8 7 2 16 -14 53 -22 53 -5 0 -9 9 -9
21 0 11 -4 17 -10 14 -6 -3 -7 1 -4 9 3 9 1 16 -6 16 -6 0 -8 5 -5 10 3 6 1
10 -5 10 -7 0 -9 7 -6 17 4 10 4 14 0 10 -4 -4 -29 36 -54 88 -25 52 -50 92
-55 88 -4 -5 -5 -3 -2 4 4 6 1 17 -6 25 -8 7 -12 19 -9 26 2 6 -1 12 -7 12 -6
0 -11 7 -11 15 0 8 -5 15 -10 15 -6 0 -9 3 -8 7 3 10 -52 122 -63 129 -5 3 -7
10 -4 15 4 5 1 9 -4 9 -6 0 -11 9 -11 20 0 11 -4 20 -10 20 -5 0 -10 9 -10 20
0 11 -3 20 -8 20 -4 0 -18 24 -32 53 -13 28 -27 54 -30 57 -3 3 -12 20 -19 38
-8 17 -17 32 -22 32 -5 0 -9 8 -9 19 0 10 -7 24 -15 31 -8 6 -14 15 -14 18 2
17 -14 52 -24 52 -6 0 -7 3 -4 7 4 3 2 12 -3 18 -17 20 -60 109 -60 123 0 7
-4 10 -10 7 -5 -3 -10 3 -10 14 0 12 -4 21 -10 21 -5 0 -9 3 -8 8 1 4 -3 17
-10 30 -7 12 -10 22 -6 22 4 0 -2 8 -13 18 -11 9 -18 23 -16 30 3 6 1 12 -4
12 -4 0 -14 9 -21 21 -8 12 -9 18 -2 14 6 -4 -7 23 -29 58 -22 36 -37 68 -34
71 4 3 1 6 -6 6 -7 0 -10 4 -7 9 3 5 -1 14 -10 21 -8 7 -13 19 -10 26 3 7 -2
15 -10 18 -9 3 -13 10 -9 15 3 5 1 12 -4 16 -6 3 -20 27 -33 53 -12 26 -31 60
-42 76 -13 20 -15 27 -5 22 7 -4 5 1 -7 11 -11 10 -20 20 -21 23 -2 21 -16 50
-24 50 -6 0 -8 4 -5 9 3 5 -4 21 -16 37 -13 15 -17 24 -10 20 11 -7 11 -4 0
13 -7 12 -16 21 -20 21 -5 0 -8 6 -8 14 0 8 -11 34 -25 57 -26 47 -31 64 -15
54 6 -3 10 3 10 14 0 12 4 21 8 21 5 0 17 16 28 35 10 19 22 35 27 35 4 0 6 4
3 8 -3 5 4 18 14 30 11 12 20 28 20 37 0 8 4 15 10 15 5 0 12 11 16 25 3 14 9
25 13 25 4 0 13 16 21 35 7 19 18 31 23 28 6 -3 7 -1 3 5 -3 6 -2 13 4 17 5 3
10 13 10 21 0 9 7 22 15 31 8 8 13 19 10 24 -4 5 -2 9 4 9 6 0 13 11 17 25 3
14 10 22 15 19 5 -3 6 2 3 10 -4 9 1 18 10 22 9 3 14 10 11 14 -3 5 3 23 14
41 11 18 18 36 15 41 -3 4 0 8 5 8 6 0 11 9 11 20 0 11 5 20 10 20 6 0 10 6
10 13 0 6 7 25 15 41 9 16 13 36 10 43 -2 8 -1 11 4 8 8 -4 22 20 26 45 0 3 6
15 13 28 7 12 9 22 5 22 -4 0 -2 4 5 8 7 5 14 22 15 39 1 22 6 29 16 25 9 -4
12 -1 7 7 -4 6 -2 19 6 28 11 14 11 15 0 9 -11 -7 -11 -4 0 15 7 13 18 27 23
31 6 4 7 8 3 8 -4 0 2 26 14 58 11 31 20 63 21 70 0 6 4 12 8 12 4 0 6 9 4 20
-2 11 0 20 6 20 5 0 9 11 9 23 0 13 3 27 7 31 7 6 11 24 15 59 1 9 6 17 11 17
4 0 7 8 5 18 -1 9 1 22 5 29 4 6 8 23 9 37 1 14 5 26 8 26 3 0 7 12 8 26 1 14
5 31 9 37 4 7 9 30 10 51 2 21 7 44 13 51 6 7 8 20 4 29 -3 9 -2 16 4 16 6 0
9 8 7 18 -1 9 2 23 8 30 5 6 8 13 6 13 -14 5 -1657 4 -1654 -1 2 -4 -4 -13
-13 -22 -29 -25 -62 -68 -62 -79 0 -5 -5 -7 -10 -4 -6 3 -13 -2 -17 -12 -4 -9
-18 -29 -32 -44 -48 -49 -101 -109 -97 -109 2 0 -17 -22 -42 -49 -26 -27 -57
-61 -69 -77 -12 -16 -38 -46 -59 -66 -20 -21 -35 -38 -31 -38 3 0 -11 -17 -31
-39 -61 -63 -87 -96 -84 -103 1 -5 -5 -8 -13 -8 -8 0 -15 -3 -15 -8 0 -4 -12
-21 -27 -38 -16 -17 -48 -54 -73 -84 -25 -29 -66 -76 -92 -104 -26 -28 -48
-57 -48 -64 0 -6 -3 -11 -7 -10 -5 2 -9 0 -10 -4 -5 -15 -38 -45 -45 -41 -5 2
-8 -3 -8 -11 0 -9 -5 -16 -12 -16 -6 0 -9 -2 -6 -5 3 -3 -15 -27 -41 -53 -25
-26 -48 -51 -51 -57 -3 -5 -8 -9 -12 -7 -5 1 -8 -4 -8 -12 0 -7 -11 -21 -24
-32 -14 -10 -27 -28 -31 -41 -3 -15 -10 -20 -20 -17 -11 5 -13 2 -8 -12 4 -12
3 -15 -5 -10 -7 4 -12 1 -12 -9 0 -9 -4 -14 -9 -11 -5 3 -11 -4 -14 -15 -3
-12 -10 -18 -16 -14 -6 3 -11 -1 -11 -9 0 -9 -4 -16 -10 -16 -5 0 -10 -7 -10
-15 0 -23 -28 -18 -36 8 -5 12 -7 25 -6 30 1 4 -2 7 -8 7 -5 0 -10 11 -10 25
0 14 -4 25 -10 25 -5 0 -10 9 -10 20 0 11 -5 20 -11 20 -5 0 -7 4 -4 10 3 5
-3 26 -13 47 -11 21 -23 53 -27 71 -3 17 -11 32 -16 32 -5 0 -9 11 -9 25 0 14
-4 25 -10 25 -5 0 -10 9 -10 19 0 11 -5 23 -10 26 -6 4 -8 10 -5 15 3 5 0 12
-6 15 -5 4 -8 13 -5 21 3 8 1 14 -4 14 -6 0 -10 9 -10 20 0 11 -5 20 -11 20
-5 0 -8 4 -4 9 3 5 -1 16 -9 24 -8 8 -12 17 -9 20 3 4 -2 18 -11 32 -9 14 -14
25 -10 25 4 0 1 7 -6 15 -7 8 -9 15 -6 15 4 0 1 10 -6 23 -7 12 -13 24 -13 27
0 3 -6 15 -13 28 -7 12 -10 22 -7 22 3 0 -1 13 -9 29 -9 16 -12 31 -9 35 4 3
1 6 -5 6 -6 0 -14 15 -18 34 -3 19 -12 37 -20 40 -7 3 -11 11 -9 18 3 8 -3 31
-14 53 -10 22 -17 43 -14 47 2 5 0 8 -4 8 -5 0 -15 20 -22 45 -7 25 -17 45
-23 45 -5 0 -7 4 -4 9 3 5 -1 26 -10 47 -9 22 -15 41 -14 43 1 2 -2 7 -7 10
-9 7 -34 69 -36 89 0 6 -5 12 -10 12 -5 0 -7 7 -3 15 3 8 1 15 -4 15 -6 0 -10
9 -10 19 0 11 -5 23 -10 26 -6 4 -8 11 -5 16 4 5 1 9 -5 9 -6 0 -8 5 -5 10 3
6 2 10 -4 10 -6 0 -8 7 -5 15 4 8 2 15 -3 15 -5 0 -10 10 -10 22 -1 13 -7 24
-13 26 -5 2 -10 14 -10 26 0 13 -3 26 -7 30 -5 4 -8 11 -8 14 -1 4 -6 17 -13
28 -6 12 -8 24 -5 28 3 3 1 6 -6 6 -7 0 -10 4 -6 9 3 5 1 12 -5 16 -6 4 -8 11
-5 16 4 5 2 9 -4 9 -6 0 -7 7 -4 17 4 11 3 14 -5 9 -8 -5 -12 3 -12 23 0 17
-4 31 -10 31 -5 0 -10 9 -10 19 0 11 -5 23 -11 26 -6 4 -8 13 -5 21 3 8 1 14
-4 14 -6 0 -10 8 -10 18 0 10 -7 27 -15 38 -8 10 -15 29 -15 42 0 12 -4 22
-10 22 -5 0 -10 9 -10 20 0 11 -4 28 -10 38 -16 27 -36 81 -39 103 0 5 -5 8
-10 4 -6 -3 -8 6 -5 20 2 14 0 25 -6 25 -5 0 -10 9 -10 20 0 11 -4 20 -10 20
-5 0 -10 11 -10 25 0 14 -4 25 -10 25 -5 0 -9 3 -8 8 4 14 -55 162 -62 157 -5
-3 -6 4 -3 15 3 11 0 20 -6 20 -6 0 -10 3 -10 8 3 19 -2 43 -8 39 -5 -3 -9 5
-10 16 0 12 -7 36 -14 52 -7 17 -13 32 -14 35 0 3 -6 15 -13 28 -7 12 -10 27
-7 32 3 6 1 10 -4 10 -6 0 -11 7 -11 15 0 8 -4 15 -8 15 -4 0 -8 8 -9 18 -2
28 -7 47 -15 52 -3 3 -8 12 -10 20 -2 8 -8 20 -15 27 -6 7 -10 21 -9 30 2 10
-1 20 -5 23 -5 3 -10 16 -12 29 -2 12 -10 27 -18 32 -8 5 -11 9 -7 9 10 0 -22
90 -33 90 -5 0 -8 3 -7 8 3 13 -14 62 -22 62 -4 0 -11 -15 -15 -32z"/>
</g>
</svg>
